# xmcd CD database file
#
# Track frame offsets:
#	150
#	56426
#	110154
#	160550
#	183603
#	220030
#	273397
#	325674
#
# Disc length: 4714 seconds
#
# Revision: 0
# Processed by: cddbd v1.5.2PL0 Copyright (c) Steve Scherf et al.
# Submitted via: CDex 1.51
#
DISCID=6c126808
DTITLE=Cannonball Adderly Quintet - live Jazz Workshop
DYEAR=1959
DGENRE=Jazz
TTITLE0=This Here
TTITLE1=Spontaneous Combustion
TTITLE2=Hi Fly
TTITLE3=You got It
TTITLE4=Bohemia after Dark
TTITLE5=Straight no Chaser
TTITLE6=This here (alt take)
TTITLE7=You got It (alt take)
EXTD=YEAR: 1959
EXTT0=
EXTT1=
EXTT2=
EXTT3=
EXTT4=
EXTT5=
EXTT6=
EXTT7=
PLAYORDER=
